# xmcd CD database file
#
# Track frame offsets:
#	150
#	21181
#	58652
#	102084
#	127745
#	160571
#
# Disc length: 2448 seconds
#
# Revision: 1
# Processed by: cddbd v1.5.1PL0 Copyright (c) Steve Scherf et al.
# Submitted via: CDex 1.51
#
DISCID=3c098e06
DTITLE=Space Coyote - Regardless
DYEAR=2001
DGENRE=Rock
TTITLE0=Small Talk
TTITLE1=Don't Wallow
TTITLE2=Know The Game
TTITLE3=I Wouldn't Mind My State Of Mind If I Knew What State I Was In
TTITLE4=Pillow Monster Pillow
TTITLE5=Skeptic's Fill
EXTD=YEAR: 2001
EXTT0=
EXTT1=
EXTT2=
EXTT3=
EXTT4=
EXTT5=
PLAYORDER=
